---
title: 郑少秋.1981-烽火飞花（LP版）【娱乐唱片】【WAV+CUE】
date: 2023-09-11 08:43:37
categories: WAV车载音乐、镜像
tags: 华语中文
---
# 郑少秋.1981-烽火飞花（LP版）【娱乐唱片】【WAV+CUE】

REM GENRE POP
REM DATE 1981
PERFORMER "郑少秋"
TITLE "烽火飞花"
FILE "郑少秋.-.[烽火飞花](1981)[WAV].wav" WAVE
TRACK 01 AUDIO
TITLE "烽火飞花"
INDEX 01 00:00:00
TRACK 02 AUDIO
TITLE "长为曙光盼"
INDEX 01 02:52:35
TRACK 03 AUDIO
TITLE "日出东方"
INDEX 01 06:27:35
TRACK 04 AUDIO
TITLE "到底因为谁"
INDEX 01 09:00:10
TRACK 05 AUDIO
TITLE "许愿泉"
INDEX 01 11:52:14
TRACK 06 AUDIO
TITLE "凯旋歌"
INDEX 01 16:03:58
TRACK 07 AUDIO
TITLE "连城诀"
INDEX 01 18:26:56
TRACK 08 AUDIO
TITLE "情愿你知晓"
INDEX 01 21:11:61
TRACK 09 AUDIO
TITLE "星光下"
INDEX 01 24:51:64
TRACK 10 AUDIO
TITLE "轻轻吻你面"
INDEX 01 28:19:27
TRACK 11 AUDIO
TITLE "我心似星光"
INDEX 01 31:32:14
TRACK 12 AUDIO
TITLE "谁愿回头"
INDEX 01 34:12:43
郑少秋.1981 - 烽火飞花（LP版）【娱乐唱片】【WAV+CUE】.rar: https://url27.ctfile.com/f/9388027-932947023-c57659?p=559675
(访问密码: 559675)
郑少秋: https://url27.ctfile.com/d/9388027-30075313-9d1cc9?p=559675
(访问密码: 559675)
原文：[链接](https://blog.sina.com.cn/s/blog_1647c7e76010313ef.html)